<svg width="680" height="440" viewBox="0 0 680 440" role="img" xmlns="http://www.w3.org/2000/svg">
<title>Slice Story: a domed gas pizza oven with gently rising smoke, tomato, basil and mozzarella behind a wooden board</title>
<style>
@keyframes sA{0%{transform:translateY(0) scale(.45);opacity:0}14%{opacity:.9}100%{transform:translateY(-64px) scale(1.5);opacity:0}}
@keyframes sB{0%{transform:translateY(0) scale(.45);opacity:0}14%{opacity:.85}100%{transform:translateY(-68px) translateX(-9px) scale(1.55);opacity:0}}
@keyframes sC{0%{transform:translateY(0) scale(.45);opacity:0}14%{opacity:.9}100%{transform:translateY(-66px) translateX(8px) scale(1.5);opacity:0}}
.pA{animation:sA 5.2s ease-out infinite}
.pB{animation:sB 5.2s ease-out infinite;animation-delay:1.75s}
.pC{animation:sC 5.2s ease-out infinite;animation-delay:3.5s}
@media (prefers-reduced-motion:reduce){.pA,.pB,.pC{animation:none;opacity:0}}
</style>
<g fill="#2f7d55">
<path d="M210 300 Q194 190 232 126 Q256 190 244 300 Z"/>
<path d="M416 296 Q402 188 444 134 Q462 196 450 296 Z"/>
<path d="M470 300 Q464 196 502 152 Q514 206 500 300 Z"/>
</g>
<g fill="#4f9d6b">
<path d="M258 298 Q246 194 290 146 Q306 206 294 298 Z"/>
<path d="M434 302 Q424 204 468 154 Q482 212 468 302 Z"/>
</g>
<path d="M238 302 Q228 220 268 178 Q282 226 272 302 Z" fill="#6bb583"/>
<path d="M236 250 Q206 202 296 206 Q436 190 482 218 Q536 232 480 262 Q356 280 236 250 Z" fill="#d9eef3"/>
<ellipse cx="152" cy="290" rx="56" ry="52" fill="#e0685c"/>
<ellipse cx="132" cy="272" rx="16" ry="20" fill="#ec8479" opacity="0.55"/>
<path d="M138 250 Q152 232 168 250 Q152 260 138 250 Z" fill="#3a7a4e"/>
<path d="M152 242 L152 254" stroke="#2f5f3c" stroke-width="5" stroke-linecap="round"/>
<path d="M96 290 Q68 282 58 260 Q84 264 96 284 Q86 258 94 240 Q110 264 104 290 Z" fill="#5aa06f"/>
<g stroke="#8f857c" stroke-width="8" stroke-linecap="round">
<line x1="338" y1="300" x2="338" y2="348"/>
<line x1="408" y1="300" x2="408" y2="348"/>
</g>
<rect x="362" y="96" width="22" height="94" rx="3" fill="#a8b3b7"/>
<rect x="362" y="96" width="8" height="94" rx="3" fill="#c2ccd0"/>
<rect x="357" y="90" width="32" height="10" rx="3" fill="#93a0a5"/>
<g fill="#e2e2e0">
<g class="pA"><circle cx="373" cy="92" r="8"/><circle cx="367" cy="82" r="7"/><circle cx="379" cy="78" r="7.5"/><circle cx="372" cy="68" r="8.5"/></g>
<g class="pB"><circle cx="374" cy="92" r="7.5"/><circle cx="380" cy="82" r="7"/><circle cx="367" cy="77" r="7.5"/><circle cx="374" cy="67" r="8"/></g>
<g class="pC"><circle cx="372" cy="92" r="8"/><circle cx="366" cy="82" r="6.5"/><circle cx="380" cy="78" r="7.5"/><circle cx="373" cy="68" r="8"/></g>
</g>
<rect x="324" y="292" width="98" height="12" rx="4" fill="#7a5140"/>
<path d="M316 294 Q316 184 373 184 Q430 184 430 294 Z" fill="#e0685c"/>
<path d="M316 294 Q316 184 373 184 Q430 184 430 294 Z" fill="none" stroke="#c95b52" stroke-width="3"/>
<path d="M373 184 Q316 184 316 294 L334 294 Q334 206 373 200 Z" fill="#ea7d72" opacity="0.45"/>
<g fill="#cf5148" opacity="0.5">
<circle cx="350" cy="222" r="3.8"/><circle cx="373" cy="210" r="3.8"/><circle cx="396" cy="222" r="3.8"/>
<circle cx="360" cy="240" r="3.8"/><circle cx="386" cy="240" r="3.8"/>
</g>
<path d="M338 294 Q338 238 373 238 Q408 238 408 294 Z" fill="#361f13"/>
<path d="M338 294 Q338 240 373 239 L373 294 Z" fill="#472a1a"/>
<ellipse cx="373" cy="286" rx="27" ry="9" fill="#f0b83e"/>
<ellipse cx="373" cy="284" rx="27" ry="7" fill="#f6c85e"/>
<g fill="#d73325"><circle cx="364" cy="284" r="2.8"/><circle cx="382" cy="285" r="2.8"/><circle cx="373" cy="281" r="2.5"/></g>
<path d="M356 294 Q364 277 371 294 Q379 278 387 294 Z" fill="#f4b63e"/>
<path d="M358 294 Q365 283 372 294 Q379 285 386 294 Z" fill="#e0562a"/>
<ellipse cx="548" cy="300" rx="50" ry="42" fill="#f4d06a"/>
<path d="M504 296 Q548 276 592 296 Q548 316 504 296 Z" fill="#f8dd8c" opacity="0.75"/>
<ellipse cx="530" cy="288" rx="9" ry="5" fill="#fcecb4"/>
<path d="M606 288 Q634 280 644 258 Q618 262 606 282 Q614 256 606 238 Q592 262 598 288 Z" fill="#5aa06f"/>
<rect x="484" y="318" width="15" height="66" rx="7" fill="#5a5550" transform="rotate(30 491 351)"/>
<circle cx="540" cy="316" r="33" fill="#ccd6d9"/>
<circle cx="529" cy="305" r="9" fill="#dbe3e5" opacity="0.7"/>
<circle cx="540" cy="316" r="7" fill="#8a9598"/>
<path d="M118 346 L562 346 L594 396 L86 396 Z" fill="#f0e5d1"/>
<path d="M118 346 L562 346 L562 358 L118 358 Z" fill="#e7dabf" opacity="0.6"/>
<path d="M86 396 L594 396 L594 412 L86 412 Z" fill="#dbcaab"/>
</svg>
